<svg xmlns="http://www.w3.org/2000/svg" viewBox="0 0 24 24" fill="#ffffff" width="512" height="512"><path d="M12 14c2.2-1 1.69-1.99-1.24-3.44-1.49-1.72-3.84-.57-3.84 2.44 0 2.34 1.53 3.15 3.08 3.46 1.01.2 3.02-.16 3.02-1.46zm-6.05-3.01c0-2.46 1.76-3.38 3.55-2.68a.69.69 0 0 1-.09 1.37c-1.14-.56-1.72 0-1.72 1.28 0 1.32 1.3 1.66 2.09 1.16.74-.47 1.36-1.91 1.02-3.33-.3-1.24-1.46-2.19-2.80-2.19-3.01 0-4.97 2.49-4.97 5.42 0 3.58 2.79 4.96 5.76 4.96s5.73-2 5.73-4.31c0-1.72-1.43-2.88-2.58-2.88-1.19 0-2.18.99-2.18 2.11 0 .56.41.72.83.67 1.19-.14 1.25-.89 1.25-1.44-.01-1.24-1.06-2.09-2.35-2.09-2.33 0-3.94 2.11-3.94 4.38zm11.05-4.81c-2.12-1.29-2.35-1.89-.8-3.32 1.48-1.36 3.63-.2 3.63 2.47 0 2.25-1.23 3.19-3.08 3.19-1.11-.02-2.38-.45-2.38-1.34zm-4.02-2.42c1.27.09 1.78-.53 1.78-1.45 0-1.2-1.31-1.39-1.78-.82-.41.48-1.15 1.96-.71 3.38.35 1.12 1.58 2.08 2.97 2.08 3.16 0 5.15-2.61 5.15-5.31 0-3.47-2.25-5.11-5.25-5.11s-5.45 1.89-5.45 4.36c0 1.71 1.38 2.99 2.79 2.99s.53-1.34.53-1.34z"/></svg>